<mxfile host="app.diagrams.net" modified="2022-02-20T20:24:42.371Z" agent="5.0 (Windows)" etag="8TjOdLafgaN74qNLXYcw" version="16.6.1" type="github">
  <diagram id="WlLERivJvHOrQGwCGo-z" name="Page-1">
    <mxGraphModel dx="1422" dy="772" grid="1" gridSize="10" guides="1" tooltips="1" connect="1" arrows="1" fold="1" page="1" pageScale="1" pageWidth="827" pageHeight="1169" math="0" shadow="0">
      <root>
        <mxCell id="0" />
        <mxCell id="1" parent="0" />
        <mxCell id="-C2Bd3RJ06ezDWMRbkp3-2" style="edgeStyle=orthogonalEdgeStyle;rounded=0;orthogonalLoop=1;jettySize=auto;html=1;strokeColor=default;dashed=1;" edge="1" parent="1">
          <mxGeometry relative="1" as="geometry">
            <mxPoint x="1022" y="399" as="targetPoint" />
            <Array as="points">
              <mxPoint x="902" y="399" />
              <mxPoint x="902" y="399" />
            </Array>
            <mxPoint x="861.3264248704663" y="399" as="sourcePoint" />
          </mxGeometry>
        </mxCell>
        <mxCell id="-C2Bd3RJ06ezDWMRbkp3-7" value="" style="shape=parallelogram;perimeter=parallelogramPerimeter;whiteSpace=wrap;html=1;fixedSize=1;dashed=1;" vertex="1" parent="1">
          <mxGeometry x="630" y="317" width="250" height="153" as="geometry" />
        </mxCell>
        <mxCell id="-C2Bd3RJ06ezDWMRbkp3-8" style="rounded=0;orthogonalLoop=1;jettySize=auto;html=1;startArrow=classic;startFill=1;endArrow=none;endFill=0;strokeColor=#000000;strokeWidth=1;exitX=0.028;exitY=0.608;exitDx=0;exitDy=0;exitPerimeter=0;" edge="1" parent="1" source="-C2Bd3RJ06ezDWMRbkp3-7">
          <mxGeometry relative="1" as="geometry">
            <mxPoint x="420" y="410" as="targetPoint" />
            <mxPoint x="640" y="410" as="sourcePoint" />
          </mxGeometry>
        </mxCell>
        <mxCell id="-C2Bd3RJ06ezDWMRbkp3-16" style="rounded=0;orthogonalLoop=1;jettySize=auto;html=1;startArrow=classic;startFill=1;endArrow=none;endFill=0;strokeColor=#000000;strokeWidth=1;dashed=1;" edge="1" parent="1">
          <mxGeometry relative="1" as="geometry">
            <mxPoint x="872" y="339" as="targetPoint" />
            <mxPoint x="1022" y="339" as="sourcePoint" />
          </mxGeometry>
        </mxCell>
        <mxCell id="-C2Bd3RJ06ezDWMRbkp3-17" value="Camera.Open()" style="edgeLabel;html=1;align=center;verticalAlign=middle;resizable=0;points=[];" vertex="1" connectable="0" parent="-C2Bd3RJ06ezDWMRbkp3-16">
          <mxGeometry x="0.5687" y="-4" relative="1" as="geometry">
            <mxPoint x="-73" y="4" as="offset" />
          </mxGeometry>
        </mxCell>
        <mxCell id="-C2Bd3RJ06ezDWMRbkp3-18" style="rounded=0;orthogonalLoop=1;jettySize=auto;html=1;startArrow=classic;startFill=1;endArrow=none;endFill=0;strokeColor=#000000;strokeWidth=1;dashed=1;" edge="1" parent="1">
          <mxGeometry relative="1" as="geometry">
            <mxPoint x="872" y="369" as="targetPoint" />
            <mxPoint x="1022" y="369" as="sourcePoint" />
          </mxGeometry>
        </mxCell>
        <mxCell id="-C2Bd3RJ06ezDWMRbkp3-19" value="Camera.Close()" style="edgeLabel;html=1;align=center;verticalAlign=middle;resizable=0;points=[];" vertex="1" connectable="0" parent="-C2Bd3RJ06ezDWMRbkp3-18">
          <mxGeometry x="0.5687" y="-4" relative="1" as="geometry">
            <mxPoint x="-66" y="4" as="offset" />
          </mxGeometry>
        </mxCell>
        <mxCell id="-C2Bd3RJ06ezDWMRbkp3-21" style="rounded=0;orthogonalLoop=1;jettySize=auto;html=1;entryX=0;entryY=0.25;entryDx=0;entryDy=0;dashed=1;strokeColor=default;" edge="1" parent="1" target="-C2Bd3RJ06ezDWMRbkp3-7">
          <mxGeometry relative="1" as="geometry">
            <mxPoint x="420" y="360" as="sourcePoint" />
          </mxGeometry>
        </mxCell>
        <mxCell id="-C2Bd3RJ06ezDWMRbkp3-26" value="th_group_gestion_vision" style="edgeLabel;html=1;align=center;verticalAlign=middle;resizable=0;points=[];" vertex="1" connectable="0" parent="1">
          <mxGeometry x="700.0000000000002" y="270" as="geometry">
            <mxPoint x="-8" as="offset" />
          </mxGeometry>
        </mxCell>
        <mxCell id="-C2Bd3RJ06ezDWMRbkp3-29" value="openCamera" style="edgeLabel;html=1;align=center;verticalAlign=middle;resizable=0;points=[];" vertex="1" connectable="0" parent="1">
          <mxGeometry x="682.0000000000002" y="350" as="geometry">
            <mxPoint x="-5" y="7" as="offset" />
          </mxGeometry>
        </mxCell>
        <mxCell id="-C2Bd3RJ06ezDWMRbkp3-35" value="inputStream" style="edgeLabel;html=1;align=center;verticalAlign=middle;resizable=0;points=[];" vertex="1" connectable="0" parent="1">
          <mxGeometry x="675.0000000000002" y="439" as="geometry" />
        </mxCell>
        <mxCell id="-C2Bd3RJ06ezDWMRbkp3-36" value="100 ms / A" style="ellipse;whiteSpace=wrap;html=1;" vertex="1" parent="1">
          <mxGeometry x="628" y="301.25" width="60" height="40" as="geometry" />
        </mxCell>
        <mxCell id="-C2Bd3RJ06ezDWMRbkp3-37" value="Camera.Open()" style="edgeLabel;html=1;align=center;verticalAlign=middle;resizable=0;points=[];" vertex="1" connectable="0" parent="1">
          <mxGeometry x="946.9970588235294" y="330" as="geometry" />
        </mxCell>
        <mxCell id="-C2Bd3RJ06ezDWMRbkp3-38" value="Camera.Close()" style="edgeLabel;html=1;align=center;verticalAlign=middle;resizable=0;points=[];" vertex="1" connectable="0" parent="1">
          <mxGeometry x="948.9957142857145" y="360" as="geometry" />
        </mxCell>
        <mxCell id="-C2Bd3RJ06ezDWMRbkp3-39" value="Camera.Grab()" style="edgeLabel;html=1;align=center;verticalAlign=middle;resizable=0;points=[];" vertex="1" connectable="0" parent="1">
          <mxGeometry x="822.9968965517241" y="397" as="geometry" />
        </mxCell>
        <mxCell id="-C2Bd3RJ06ezDWMRbkp3-40" value="Camera.Grab()" style="edgeLabel;html=1;align=center;verticalAlign=middle;resizable=0;points=[];" vertex="1" connectable="0" parent="1">
          <mxGeometry x="946.9968965517241" y="390" as="geometry" />
        </mxCell>
        <mxCell id="-C2Bd3RJ06ezDWMRbkp3-47" style="edgeStyle=orthogonalEdgeStyle;rounded=0;orthogonalLoop=1;jettySize=auto;html=1;strokeColor=default;strokeWidth=1;startArrow=classic;startFill=1;endArrow=none;endFill=0;" edge="1" parent="1">
          <mxGeometry relative="1" as="geometry">
            <mxPoint x="1027" y="427" as="targetPoint" />
            <Array as="points">
              <mxPoint x="997" y="427" />
            </Array>
            <mxPoint x="868" y="427" as="sourcePoint" />
          </mxGeometry>
        </mxCell>
        <mxCell id="-C2Bd3RJ06ezDWMRbkp3-48" value="Image" style="edgeLabel;html=1;align=center;verticalAlign=middle;resizable=0;points=[];" vertex="1" connectable="0" parent="-C2Bd3RJ06ezDWMRbkp3-47">
          <mxGeometry x="-0.3302" y="-1" relative="1" as="geometry">
            <mxPoint x="9" y="-13" as="offset" />
          </mxGeometry>
        </mxCell>
        <mxCell id="-C2Bd3RJ06ezDWMRbkp3-51" value="Image" style="edgeLabel;html=1;align=center;verticalAlign=middle;resizable=0;points=[];" vertex="1" connectable="0" parent="-C2Bd3RJ06ezDWMRbkp3-47">
          <mxGeometry x="-0.673" y="-2" relative="1" as="geometry">
            <mxPoint x="-46" y="-2" as="offset" />
          </mxGeometry>
        </mxCell>
        <mxCell id="-C2Bd3RJ06ezDWMRbkp3-52" style="rounded=0;orthogonalLoop=1;jettySize=auto;html=1;startArrow=classic;startFill=1;endArrow=none;endFill=0;strokeColor=#000000;strokeWidth=1;exitX=0;exitY=0.889;exitDx=0;exitDy=0;exitPerimeter=0;" edge="1" parent="1" source="-C2Bd3RJ06ezDWMRbkp3-7">
          <mxGeometry relative="1" as="geometry">
            <mxPoint x="420" y="453" as="targetPoint" />
            <mxPoint x="675.0000000000003" y="530" as="sourcePoint" />
          </mxGeometry>
        </mxCell>
        <mxCell id="-C2Bd3RJ06ezDWMRbkp3-54" style="rounded=0;orthogonalLoop=1;jettySize=auto;html=1;startArrow=none;startFill=0;endArrow=classic;endFill=1;strokeColor=#000000;strokeWidth=1;exitX=0.404;exitY=0.993;exitDx=0;exitDy=0;exitPerimeter=0;" edge="1" parent="1" source="-C2Bd3RJ06ezDWMRbkp3-7">
          <mxGeometry relative="1" as="geometry">
            <mxPoint x="731" y="550" as="targetPoint" />
            <mxPoint x="731" y="470" as="sourcePoint" />
          </mxGeometry>
        </mxCell>
        <mxCell id="-C2Bd3RJ06ezDWMRbkp3-59" value="Message" style="edgeLabel;html=1;align=center;verticalAlign=middle;resizable=0;points=[];" vertex="1" connectable="0" parent="-C2Bd3RJ06ezDWMRbkp3-54">
          <mxGeometry x="-0.3815" relative="1" as="geometry">
            <mxPoint y="16" as="offset" />
          </mxGeometry>
        </mxCell>
        <mxCell id="-C2Bd3RJ06ezDWMRbkp3-57" style="rounded=0;orthogonalLoop=1;jettySize=auto;html=1;entryX=0.04;entryY=0.425;entryDx=0;entryDy=0;dashed=1;strokeColor=default;entryPerimeter=0;" edge="1" parent="1" target="-C2Bd3RJ06ezDWMRbkp3-7">
          <mxGeometry relative="1" as="geometry">
            <mxPoint x="420" y="382" as="sourcePoint" />
            <mxPoint x="638.4230769230771" y="389.0034615384614" as="targetPoint" />
          </mxGeometry>
        </mxCell>
        <mxCell id="-C2Bd3RJ06ezDWMRbkp3-58" value="closeCamera" style="edgeLabel;html=1;align=center;verticalAlign=middle;resizable=0;points=[];" vertex="1" connectable="0" parent="1">
          <mxGeometry x="680.0000000000002" y="373" as="geometry">
            <mxPoint x="-5" y="7" as="offset" />
          </mxGeometry>
        </mxCell>
        <mxCell id="-C2Bd3RJ06ezDWMRbkp3-60" value="calibrateArena" style="rounded=0;whiteSpace=wrap;html=1;" vertex="1" parent="1">
          <mxGeometry x="480" y="397" width="90" height="30" as="geometry" />
        </mxCell>
        <mxCell id="-C2Bd3RJ06ezDWMRbkp3-61" value="findPosition" style="rounded=0;whiteSpace=wrap;html=1;" vertex="1" parent="1">
          <mxGeometry x="480" y="440" width="90" height="30" as="geometry" />
        </mxCell>
        <mxCell id="-C2Bd3RJ06ezDWMRbkp3-63" value="" style="rounded=1;whiteSpace=wrap;html=1;dashed=1;strokeWidth=2;fillColor=none;" vertex="1" parent="1">
          <mxGeometry x="440" y="290" width="560" height="240" as="geometry" />
        </mxCell>
      </root>
    </mxGraphModel>
  </diagram>
</mxfile>
